<?xml version="1.0" standalone="no"?>
<!DOCTYPE svg PUBLIC "-//W3C//DTD SVG 20010904//EN"
 "http://www.w3.org/TR/2001/REC-SVG-20010904/DTD/svg10.dtd">
<svg version="1.0" xmlns="http://www.w3.org/2000/svg"
 width="700.000000pt" height="700.000000pt" viewBox="0 0 700.000000 700.000000"
 preserveAspectRatio="xMidYMid meet">
<metadata>
Created by potrace 1.14, written by Peter Selinger 2001-2017
</metadata>
<g transform="translate(0.000000,700.000000) scale(0.100000,-0.100000)"
fill="#000000" stroke="none">
<path d="M3402 6408 c-130 -20 -273 -107 -364 -221 -203 -256 -140 -646 135
-834 l37 -26 0 -328 c0 -256 -3 -329 -12 -330 -7 0 -389 -2 -848 -3 -459 -2
-846 -6 -859 -9 -186 -48 -328 -156 -404 -308 -71 -144 -68 -47 -65 -1757 3
-1458 4 -1540 21 -1592 67 -200 223 -347 424 -398 69 -17 168 -18 2045 -17
1085 1 1984 5 1997 8 56 15 128 42 161 60 149 82 262 232 295 392 13 60 15
292 14 1585 -1 1677 3 1583 -67 1720 -61 118 -154 207 -275 263 -111 52 -94
51 -997 52 l-845 1 -3 331 -2 330 37 25 c147 98 249 279 255 453 6 164 -46
303 -158 424 -52 56 -167 138 -208 148 -6 1 -36 10 -66 18 -66 19 -175 25
-248 13z"/>
<path d="M487 3483 c-62 -21 -131 -83 -165 -147 l-27 -51 -2 -645 -3 -645 25
-59 c27 -67 76 -122 132 -150 21 -10 45 -22 55 -27 9 -4 50 -7 90 -5 89 3 162
38 213 101 71 87 68 51 70 745 1 448 -2 640 -11 678 -12 54 -47 114 -89 150
-73 63 -196 87 -288 55z"/>
<path d="M6333 3486 c-87 -28 -151 -85 -188 -171 -16 -37 -18 -92 -19 -660 -1
-341 2 -642 7 -670 25 -139 149 -237 294 -231 112 4 200 62 254 166 l24 45 2
635 c2 453 -1 648 -9 680 -41 159 -209 254 -365 206z"/>
</g>
</svg>
