<svg width="9" height="8" viewBox="0 0 9 8" fill="none" xmlns="http://www.w3.org/2000/svg">
<path d="M6.96997 0.969986C7.11084 0.835875 7.2983 0.761733 7.49279 0.763205C7.68728 0.764677 7.8736 0.841647 8.01242 0.977874C8.15124 1.1141 8.23172 1.29893 8.23686 1.49336C8.242 1.68779 8.1714 1.87661 8.03997 2.01999L4.04997 7.00999C3.98137 7.08389 3.89856 7.14319 3.80651 7.18435C3.71445 7.22552 3.61505 7.2477 3.51423 7.24956C3.41341 7.25143 3.31324 7.23295 3.21973 7.19522C3.12622 7.15749 3.04127 7.10129 2.96997 7.02999L0.323975 4.38399C0.250288 4.31532 0.191186 4.23252 0.150194 4.14052C0.109202 4.04853 0.0871596 3.94921 0.0853828 3.84851C0.083606 3.74781 0.102131 3.64778 0.139852 3.55439C0.177573 3.461 0.233718 3.37617 0.304936 3.30495C0.376155 3.23373 0.460989 3.17758 0.554377 3.13986C0.647765 3.10214 0.747794 3.08362 0.848497 3.08539C0.9492 3.08717 1.04851 3.10921 1.14051 3.15021C1.23251 3.1912 1.31531 3.2503 1.38397 3.32399L3.47797 5.41699L6.95097 0.991987C6.95723 0.984288 6.9639 0.976943 6.97097 0.969986H6.96997Z" fill="#684BDD"/>
</svg>
