<svg width="15" height="15" viewBox="0 0 15 15" fill="none" xmlns="http://www.w3.org/2000/svg">
<g clip-path="url(#clip0_9_408)">
<path d="M0.46875 0.9375C0.34443 0.9375 0.225201 0.986886 0.137294 1.07479C0.049386 1.1627 0 1.28193 0 1.40625C0 1.53057 0.049386 1.6498 0.137294 1.73771C0.225201 1.82561 0.34443 1.875 0.46875 1.875H1.50938L1.88531 3.38156L3.28969 10.8675C3.3098 10.9749 3.3668 11.0719 3.45085 11.1418C3.5349 11.2116 3.64072 11.2499 3.75 11.25H4.6875C4.19022 11.25 3.71331 11.4475 3.36167 11.7992C3.01004 12.1508 2.8125 12.6277 2.8125 13.125C2.8125 13.6223 3.01004 14.0992 3.36167 14.4508C3.71331 14.8025 4.19022 15 4.6875 15C5.18478 15 5.66169 14.8025 6.01333 14.4508C6.36496 14.0992 6.5625 13.6223 6.5625 13.125C6.5625 12.6277 6.36496 12.1508 6.01333 11.7992C5.66169 11.4475 5.18478 11.25 4.6875 11.25H11.25C10.7527 11.25 10.2758 11.4475 9.92418 11.7992C9.57254 12.1508 9.375 12.6277 9.375 13.125C9.375 13.6223 9.57254 14.0992 9.92418 14.4508C10.2758 14.8025 10.7527 15 11.25 15C11.7473 15 12.2242 14.8025 12.5758 14.4508C12.9275 14.0992 13.125 13.6223 13.125 13.125C13.125 12.6277 12.9275 12.1508 12.5758 11.7992C12.2242 11.4475 11.7473 11.25 11.25 11.25H12.1875C12.2968 11.2499 12.4026 11.2116 12.4866 11.1418C12.5707 11.0719 12.6277 10.9749 12.6478 10.8675L14.0541 3.3675C14.0667 3.29985 14.0643 3.23024 14.0471 3.16361C14.0298 3.09699 13.9981 3.03498 13.9541 2.982C13.9102 2.92903 13.8551 2.88637 13.7928 2.85708C13.7305 2.82778 13.6626 2.81256 13.5938 2.8125H2.70938L2.32969 1.29281C2.30438 1.19136 2.24589 1.10128 2.1635 1.0369C2.08111 0.972516 1.97956 0.937529 1.875 0.9375H0.46875ZM5.625 13.125C5.625 13.3736 5.52623 13.6121 5.35041 13.7879C5.1746 13.9637 4.93614 14.0625 4.6875 14.0625C4.43886 14.0625 4.2004 13.9637 4.02459 13.7879C3.84877 13.6121 3.75 13.3736 3.75 13.125C3.75 12.8764 3.84877 12.6379 4.02459 12.4621C4.2004 12.2863 4.43886 12.1875 4.6875 12.1875C4.93614 12.1875 5.1746 12.2863 5.35041 12.4621C5.52623 12.6379 5.625 12.8764 5.625 13.125V13.125ZM12.1875 13.125C12.1875 13.3736 12.0887 13.6121 11.9129 13.7879C11.7371 13.9637 11.4986 14.0625 11.25 14.0625C11.0014 14.0625 10.7629 13.9637 10.5871 13.7879C10.4113 13.6121 10.3125 13.3736 10.3125 13.125C10.3125 12.8764 10.4113 12.6379 10.5871 12.4621C10.7629 12.2863 11.0014 12.1875 11.25 12.1875C11.4986 12.1875 11.7371 12.2863 11.9129 12.4621C12.0887 12.6379 12.1875 12.8764 12.1875 13.125V13.125ZM10.6444 5.95688L7.83188 8.76938C7.78833 8.81303 7.7366 8.84766 7.67966 8.87129C7.62271 8.89492 7.56166 8.90709 7.5 8.90709C7.43834 8.90709 7.37729 8.89492 7.32034 8.87129C7.26339 8.84766 7.21167 8.81303 7.16812 8.76938L5.76187 7.36313C5.71829 7.31954 5.68372 7.2678 5.66013 7.21086C5.63655 7.15392 5.62441 7.09288 5.62441 7.03125C5.62441 6.96962 5.63655 6.90858 5.66013 6.85164C5.68372 6.7947 5.71829 6.74296 5.76187 6.69937C5.80546 6.65579 5.8572 6.62122 5.91414 6.59763C5.97108 6.57405 6.03212 6.56191 6.09375 6.56191C6.15538 6.56191 6.21642 6.57405 6.27336 6.59763C6.3303 6.62122 6.38204 6.65579 6.42563 6.69937L7.5 7.77469L9.98062 5.29312C10.0242 5.24954 10.0759 5.21497 10.1329 5.19138C10.1898 5.1678 10.2509 5.15566 10.3125 5.15566C10.3741 5.15566 10.4352 5.1678 10.4921 5.19138C10.5491 5.21497 10.6008 5.24954 10.6444 5.29312C10.688 5.33671 10.7225 5.38845 10.7461 5.44539C10.7697 5.50233 10.7818 5.56337 10.7818 5.625C10.7818 5.68663 10.7697 5.74767 10.7461 5.80461C10.7225 5.86155 10.688 5.91329 10.6444 5.95688V5.95688Z" fill="#684BDD"/>
</g>
<defs>
<clipPath id="clip0_9_408">
<rect width="15" height="15" fill="white"/>
</clipPath>
</defs>
</svg>
