<svg width="48" height="48" viewBox="0 0 48 48" fill="none" xmlns="http://www.w3.org/2000/svg">
<path d="M37 18H11C9.89543 18 9 18.8954 9 20V40C9 41.1046 9.89543 42 11 42H37C38.1046 42 39 41.1046 39 40V20C39 18.8954 38.1046 18 37 18Z" fill="#684BDD" stroke="#5CFFC4" stroke-width="4"/>
<path d="M17 28C18.1046 28 19 27.1046 19 26C19 24.8954 18.1046 24 17 24C15.8954 24 15 24.8954 15 26C15 27.1046 15.8954 28 17 28Z" fill="white"/>
<path d="M31 28C32.1046 28 33 27.1046 33 26C33 24.8954 32.1046 24 31 24C29.8954 24 29 24.8954 29 26C29 27.1046 29.8954 28 31 28Z" fill="white"/>
<path d="M20 32C19.4696 32 18.9609 32.2107 18.5858 32.5858C18.2107 32.9609 18 33.4696 18 34C18 34.5304 18.2107 35.0391 18.5858 35.4142C18.9609 35.7893 19.4696 36 20 36V32ZM28 36C28.5304 36 29.0391 35.7893 29.4142 35.4142C29.7893 35.0391 30 34.5304 30 34C30 33.4696 29.7893 32.9609 29.4142 32.5858C29.0391 32.2107 28.5304 32 28 32V36ZM20 36H28V32H20V36Z" fill="white"/>
<path d="M44 26V34M24 10V18V10ZM4 26V34V26Z" stroke="#5CFFC4" stroke-width="4" stroke-linecap="round" stroke-linejoin="round"/>
<path d="M24 10C25.1046 10 26 9.10457 26 8C26 6.89543 25.1046 6 24 6C22.8954 6 22 6.89543 22 8C22 9.10457 22.8954 10 24 10Z" stroke="#5CFFC4" stroke-width="4"/>
</svg>
